<?xml version="1.0" standalone="no"?>
<!DOCTYPE svg PUBLIC "-//W3C//DTD SVG 20010904//EN"
 "http://www.w3.org/TR/2001/REC-SVG-20010904/DTD/svg10.dtd">
<svg version="1.0" xmlns="http://www.w3.org/2000/svg"
 width="2389.000000pt" height="2389.000000pt" viewBox="0 0 2389.000000 2389.000000"
 preserveAspectRatio="xMidYMid meet">
<metadata>
Created by potrace 1.14, written by Peter Selinger 2001-2017
</metadata>
<g transform="translate(0.000000,2389.000000) scale(0.100000,-0.100000)"
fill="#000000" stroke="none">
<path d="M6587 19594 c-1 -1 -87 -5 -192 -9 -104 -3 -215 -8 -245 -10 -85 -4
-241 -16 -280 -20 -19 -2 -66 -7 -105 -10 -64 -6 -345 -40 -405 -50 -144 -23
-321 -55 -360 -65 -19 -5 -52 -11 -73 -14 -51 -8 -374 -89 -507 -127 -585
-169 -1201 -453 -1701 -783 -158 -104 -445 -320 -559 -422 -237 -210 -348
-319 -566 -555 -130 -141 -354 -432 -491 -639 -84 -126 -193 -298 -193 -304 0
-2 -23 -43 -51 -92 -122 -212 -292 -572 -379 -804 -7 -19 -19 -48 -26 -65 -15
-34 -137 -399 -154 -460 -44 -156 -46 -167 -56 -214 -3 -13 -10 -33 -15 -43
-6 -11 -8 -22 -5 -25 3 -3 1 -13 -3 -22 -5 -9 -11 -29 -14 -46 -3 -16 -14 -69
-26 -117 -11 -47 -23 -101 -26 -120 -3 -18 -10 -53 -15 -78 -8 -38 -17 -88
-45 -260 -2 -14 -7 -45 -10 -69 -3 -23 -7 -55 -9 -70 -16 -93 -38 -297 -51
-476 -26 -346 -26 -831 1 -1264 4 -71 15 -186 39 -398 6 -49 15 -116 20 -144
2 -9 6 -40 10 -70 3 -30 8 -61 10 -69 2 -8 7 -35 10 -60 7 -49 52 -271 84
-415 66 -298 169 -633 288 -935 85 -216 108 -266 233 -515 268 -532 588 -974
1005 -1390 617 -617 1359 -1066 2240 -1356 92 -30 380 -114 425 -123 14 -3 52
-12 85 -21 33 -8 125 -28 205 -44 171 -35 187 -38 300 -55 19 -3 44 -8 55 -10
17 -3 85 -13 155 -21 8 -1 35 -5 60 -8 71 -10 115 -15 295 -32 292 -27 1103
-27 1430 0 28 2 86 7 130 10 44 4 96 8 115 10 19 3 64 7 100 10 36 2 74 7 85
9 11 2 50 7 87 10 37 4 77 9 90 11 13 2 46 6 73 10 71 9 116 15 145 20 14 3
42 8 64 11 21 3 48 8 60 10 26 5 118 21 166 29 27 5 300 62 380 80 149 33 464
126 620 182 180 65 275 105 448 190 146 72 154 77 150 102 -3 14 -31 125 -62
246 -32 121 -59 227 -61 235 -2 8 -22 83 -43 165 -22 83 -61 231 -87 330 -26
99 -62 239 -81 310 -19 72 -53 202 -75 290 -23 88 -42 161 -43 162 -1 1 -49
-21 -106 -48 -256 -124 -312 -149 -420 -192 -135 -53 -416 -144 -499 -162 -9
-2 -72 -17 -141 -34 -111 -26 -268 -59 -370 -76 -19 -3 -60 -10 -90 -15 -75
-12 -175 -26 -255 -35 -27 -4 -63 -8 -80 -10 -16 -2 -61 -7 -100 -10 -38 -4
-86 -8 -105 -10 -271 -28 -916 -23 -1167 10 -24 3 -64 8 -90 11 -27 3 -91 12
-143 20 -52 8 -113 17 -135 20 -22 3 -89 16 -150 29 -1092 234 -1917 783
-2477 1650 -43 66 -84 131 -91 145 -138 254 -208 404 -292 625 -118 312 -205
643 -261 1000 -8 55 -17 110 -19 123 -2 13 -7 53 -11 90 -3 37 -8 74 -9 82 -2
8 -6 49 -9 90 -4 41 -9 92 -11 113 -22 195 -23 827 -1 1057 2 19 7 69 10 110
4 41 9 95 12 120 4 44 6 60 19 150 3 25 8 59 9 75 13 106 73 405 116 577 174
688 501 1325 923 1792 440 487 1025 890 1627 1119 164 62 356 122 461 142 9 2
60 13 113 24 53 12 111 23 129 25 17 3 54 8 82 11 89 13 99 14 205 21 175 13
507 7 612 -11 38 -6 181 -27 208 -30 51 -6 299 -66 405 -99 267 -82 569 -217
790 -353 44 -27 91 -56 104 -64 29 -17 16 -7 166 -115 216 -156 292 -222 575
-501 107 -105 196 -190 198 -189 3 4 10 24 187 596 37 118 78 251 91 295 14
44 27 87 29 95 2 8 8 29 13 45 38 118 167 529 177 565 7 25 48 155 90 290 42
135 83 265 90 290 7 25 38 124 68 220 30 96 57 181 59 189 4 18 -64 46 -347
146 -425 150 -703 227 -1120 310 -93 18 -183 36 -200 38 -16 3 -73 12 -125 20
-52 9 -122 19 -155 23 -33 3 -67 7 -75 9 -8 1 -44 6 -80 10 -36 3 -76 8 -90
10 -46 7 -214 20 -405 31 -106 6 -583 13 -588 8z"/>
<path d="M15541 18800 c-27 -108 -24 -95 -61 -233 -17 -64 -33 -126 -35 -136
-2 -10 -12 -49 -23 -87 -11 -38 -41 -150 -67 -249 -25 -99 -59 -227 -75 -285
-16 -58 -58 -220 -95 -360 -37 -140 -73 -277 -81 -305 -8 -27 -16 -57 -18 -65
-1 -8 -8 -33 -14 -55 -6 -22 -35 -134 -66 -250 -89 -339 -243 -918 -286 -1080
-22 -82 -88 -330 -146 -550 -118 -448 -188 -713 -210 -795 -8 -30 -17 -62 -19
-70 -4 -16 -46 -178 -101 -385 -19 -71 -36 -137 -38 -145 -2 -8 -37 -136 -76
-285 -40 -148 -73 -274 -75 -280 -3 -17 -16 -66 -55 -210 -36 -132 -127 -477
-136 -513 -4 -19 -17 -69 -94 -362 -28 -107 -67 -256 -86 -330 -19 -74 -46
-178 -60 -230 -41 -155 -193 -758 -198 -783 -2 -12 -7 -29 -10 -37 -3 -8 -7
-26 -10 -40 -2 -14 -9 -45 -16 -70 -14 -52 -14 -54 -34 -140 -8 -36 -38 -162
-66 -280 -50 -214 -105 -452 -114 -500 -2 -14 -14 -68 -25 -120 -11 -52 -23
-106 -25 -120 -3 -14 -7 -36 -10 -50 -25 -117 -26 -119 -43 -213 -9 -48 -20
-84 -24 -80 -4 4 -37 123 -74 263 -37 140 -76 286 -87 324 -11 38 -21 77 -23
87 -2 11 -15 60 -29 111 -33 123 -77 289 -81 308 -3 13 -86 325 -190 710 -20
74 -37 142 -39 150 -2 8 -11 42 -20 75 -9 33 -18 67 -20 75 -2 8 -23 85 -46
170 -23 85 -43 162 -45 170 -2 8 -18 69 -35 135 -115 434 -174 654 -200 751
-17 61 -32 119 -34 130 -2 10 -21 78 -41 149 -20 72 -38 137 -40 145 -8 36
-145 532 -149 539 -3 4 -7 19 -9 32 -3 14 -33 126 -67 250 -34 123 -70 253
-79 289 -48 175 -73 266 -107 385 -19 72 -42 153 -49 180 -8 28 -21 77 -30
110 -10 33 -18 67 -20 76 -2 9 -12 47 -24 85 -20 69 -82 296 -147 534 -18 69
-38 141 -44 160 -15 52 -71 253 -75 270 -2 8 -20 74 -40 145 -20 72 -38 139
-41 150 -2 11 -38 142 -79 290 -42 149 -77 277 -79 285 -4 14 -32 118 -41 150
-2 8 -16 58 -30 110 -15 52 -30 109 -34 125 -5 17 -18 66 -31 110 -12 44 -30
112 -41 150 -11 39 -22 79 -24 89 -3 10 -20 73 -39 140 -18 67 -50 180 -69
251 -117 426 -180 650 -183 654 -1 2 -10 -23 -19 -55 -9 -33 -22 -72 -28 -89
-6 -16 -12 -34 -13 -40 -1 -5 -24 -84 -52 -175 -102 -336 -204 -668 -242 -790
-21 -69 -53 -172 -70 -230 -17 -58 -40 -132 -51 -165 -10 -33 -46 -150 -79
-260 -34 -110 -76 -249 -95 -310 -166 -540 -218 -714 -216 -739 1 -16 8 -50
16 -75 8 -25 60 -215 115 -421 56 -206 113 -415 127 -465 14 -49 26 -97 28
-105 4 -22 83 -316 100 -375 17 -58 155 -563 160 -585 2 -8 47 -175 100 -370
53 -195 98 -362 100 -370 3 -16 16 -61 100 -370 31 -113 57 -212 59 -220 2 -8
39 -141 81 -295 42 -154 78 -287 80 -295 1 -8 35 -134 75 -280 39 -146 91
-339 116 -430 24 -91 51 -187 59 -215 8 -27 40 -144 70 -260 31 -115 65 -241
76 -280 10 -38 44 -160 73 -270 30 -110 64 -236 76 -280 12 -44 35 -127 50
-185 16 -58 35 -130 43 -160 9 -30 38 -138 65 -240 28 -102 67 -246 87 -320
20 -74 38 -142 40 -150 2 -8 15 -58 30 -110 14 -52 35 -126 45 -165 11 -38 44
-162 75 -275 31 -113 58 -212 60 -220 1 -8 35 -134 75 -280 40 -146 74 -272
75 -280 2 -8 27 -98 55 -200 28 -102 53 -194 56 -206 2 -11 12 -46 21 -78 l18
-58 896 0 c493 0 901 2 907 6 5 3 12 18 16 33 6 29 27 108 96 358 23 83 43
157 45 165 3 15 61 224 137 500 22 80 44 159 48 175 24 95 203 747 215 785 8
25 17 56 19 70 3 14 22 84 41 155 20 72 39 141 41 154 3 14 7 29 10 33 3 5 26
84 50 176 51 190 45 167 79 292 24 88 51 184 127 465 16 61 31 115 32 120 1 6
8 28 14 50 7 22 42 148 78 280 36 132 97 355 135 495 39 140 72 262 74 270 2
8 69 256 150 550 81 294 149 544 152 555 42 155 212 770 278 1005 47 168 87
314 90 325 2 11 14 54 25 95 12 41 23 82 25 90 1 8 9 35 16 60 17 60 17 62 22
85 3 11 12 47 21 80 9 33 18 67 21 75 26 106 168 669 170 680 7 30 25 108 55
235 39 165 44 190 69 300 11 50 29 128 40 175 11 47 22 99 25 115 2 17 18 93
35 170 33 159 80 388 82 401 1 7 50 -263 73 -406 4 -20 9 -47 11 -60 3 -14 12
-63 20 -110 8 -47 17 -96 20 -110 9 -45 26 -134 31 -160 4 -24 39 -197 49
-250 3 -14 8 -40 11 -59 3 -18 7 -41 9 -50 2 -9 18 -83 35 -166 17 -82 35
-166 40 -185 5 -19 12 -49 14 -66 3 -17 21 -100 40 -185 19 -85 37 -165 40
-179 2 -14 17 -77 31 -140 15 -63 28 -122 30 -130 20 -96 134 -575 225 -947
33 -133 61 -252 64 -265 2 -13 7 -30 10 -38 3 -8 8 -26 10 -40 3 -14 28 -119
56 -235 28 -115 53 -220 56 -231 2 -12 31 -134 65 -270 33 -137 89 -370 125
-519 36 -148 75 -306 85 -350 11 -44 22 -87 24 -96 2 -9 29 -122 60 -250 31
-129 58 -241 60 -249 2 -8 31 -127 65 -265 34 -137 64 -261 66 -275 3 -14 10
-43 16 -65 5 -22 12 -47 13 -55 2 -8 20 -82 40 -165 20 -82 38 -157 40 -165 2
-8 13 -53 25 -100 11 -47 23 -92 24 -100 2 -8 14 -55 26 -105 12 -49 23 -99
26 -110 4 -22 90 -374 136 -560 16 -66 32 -130 34 -142 2 -13 27 -116 55 -229
28 -113 52 -213 54 -222 2 -10 31 -129 65 -267 63 -256 64 -261 80 -330 5 -22
14 -60 20 -85 7 -25 14 -54 16 -66 9 -45 126 -519 129 -523 3 -2 1519 -4 1756
-2 l56 1 22 82 c28 101 161 571 282 998 50 173 92 322 94 330 2 8 68 245 148
525 158 554 169 595 173 610 1 6 11 42 22 80 11 39 50 176 87 305 86 305 232
819 352 1240 52 184 97 342 98 350 2 8 15 56 30 105 14 50 30 106 35 125 5 19
16 58 25 85 8 28 71 250 140 495 70 245 142 500 161 568 20 68 37 131 39 140
2 9 13 46 24 82 11 36 26 90 34 120 9 30 38 136 67 235 28 99 58 205 66 235 8
30 42 149 75 265 33 115 67 232 74 260 8 27 37 131 65 230 28 99 67 236 86
305 19 69 43 154 54 190 11 36 63 218 116 405 52 187 180 639 284 1005 104
366 218 771 255 900 36 129 74 264 85 300 10 36 28 99 40 140 11 41 29 104 40
140 10 36 60 211 110 390 50 179 132 466 181 638 49 172 89 316 89 320 0 4
-414 7 -920 7 l-920 0 -14 -50 c-8 -27 -21 -77 -29 -110 -9 -33 -45 -175 -82
-315 -37 -140 -69 -262 -71 -270 -1 -8 -21 -85 -44 -170 -60 -226 -97 -368
-136 -520 -19 -74 -47 -178 -60 -230 -14 -52 -36 -137 -50 -188 -13 -50 -35
-134 -48 -185 -13 -50 -47 -177 -74 -282 -27 -104 -71 -271 -97 -370 -26 -99
-49 -187 -50 -195 -2 -8 -4 -15 -5 -15 -1 0 -3 -7 -5 -15 -1 -8 -17 -69 -35
-135 -17 -66 -33 -127 -35 -135 -2 -8 -20 -77 -40 -154 -20 -76 -38 -145 -40
-155 -2 -9 -15 -60 -30 -114 -15 -54 -28 -106 -30 -115 -2 -9 -13 -53 -25 -97
-12 -44 -33 -123 -46 -175 -54 -206 -168 -642 -201 -765 -19 -71 -36 -137 -38
-146 -2 -8 -17 -69 -35 -135 -70 -264 -92 -350 -96 -366 -5 -23 -13 -53 -19
-75 -63 -239 -248 -952 -260 -1003 -2 -8 -47 -190 -100 -405 -54 -214 -98
-394 -99 -400 -1 -5 -5 -19 -9 -30 -3 -11 -8 -31 -11 -45 -2 -14 -36 -154 -75
-311 -39 -158 -72 -298 -75 -310 -3 -13 -12 -49 -19 -79 -13 -49 -39 -159 -52
-218 -10 -45 -13 -58 -23 -97 -6 -22 -13 -51 -16 -65 -2 -14 -13 -63 -25 -110
-11 -47 -22 -97 -25 -110 -3 -14 -22 -95 -41 -180 -20 -85 -38 -162 -40 -170
-9 -43 -80 -373 -106 -494 -16 -77 -31 -141 -32 -143 -3 -2 -8 24 -33 174 -2
15 -12 66 -20 113 -9 47 -17 96 -19 110 -2 14 -11 61 -20 105 -8 44 -18 96
-21 115 -3 19 -7 43 -10 52 -3 10 -7 30 -10 45 -2 16 -7 39 -9 53 -3 14 -7 36
-10 50 -9 46 -45 235 -49 255 -3 11 -11 52 -20 90 -8 39 -17 82 -20 95 -2 14
-10 50 -16 80 -6 30 -13 66 -16 78 -3 13 -25 117 -50 230 -24 114 -46 218 -49
232 -3 14 -30 135 -60 270 -31 135 -58 258 -61 274 -3 16 -7 32 -9 36 -2 4 -7
22 -10 40 -3 18 -22 101 -41 184 -40 167 -43 181 -50 213 -2 12 -27 118 -55
235 -28 117 -52 220 -54 228 -17 80 -168 706 -171 711 -2 3 -6 19 -9 36 -3 17
-30 134 -61 260 -30 125 -57 235 -59 243 -2 8 -11 47 -20 85 -9 39 -18 77 -20
86 -2 9 -15 65 -30 125 -35 144 -35 145 -41 174 -3 14 -7 33 -10 42 -3 9 -6
25 -9 35 -2 10 -26 113 -55 228 -28 116 -53 217 -55 225 -2 8 -9 38 -15 65 -6
28 -14 59 -16 71 -2 11 -29 123 -60 250 -31 126 -58 240 -60 254 -3 14 -16 68
-29 120 -13 52 -36 145 -50 205 -15 61 -37 155 -50 210 -13 55 -40 168 -60
250 -20 83 -60 251 -90 375 -30 124 -68 282 -85 353 -53 223 -90 378 -131 547
-23 91 -43 176 -45 190 -3 14 -9 39 -14 55 -5 17 -11 41 -14 55 -2 14 -18 84
-36 155 -17 72 -34 141 -36 155 -3 14 -9 39 -14 55 -5 17 -11 41 -14 55 -7 36
-11 51 -46 195 -17 72 -33 137 -35 145 -2 8 -13 53 -24 100 -12 47 -24 97 -26
112 -3 14 -9 37 -14 50 l-8 23 -905 0 -905 0 -22 -85z"/>
<path d="M5328 5870 c-7 -24 -10 -25 -84 -25 l-78 0 -51 -135 c-64 -168 -60
-156 -102 -270 -19 -52 -38 -104 -43 -115 -5 -11 -36 -94 -70 -185 -34 -91
-64 -172 -67 -180 -4 -8 -7 -17 -8 -20 -1 -3 -7 -18 -14 -35 -7 -16 -14 -35
-15 -42 -1 -7 -5 -16 -9 -19 -4 -4 -7 -16 -7 -27 0 -11 -2 -18 -5 -15 -5 4
-201 515 -209 543 -2 6 -6 17 -9 25 -13 29 -159 416 -169 446 l-10 31 -147 -1
-146 -1 -1 -762 c0 -420 3 -763 8 -764 4 0 37 -1 73 -1 36 0 83 1 104 1 l39 1
-1 530 c-1 292 1 530 4 530 4 0 16 -28 29 -62 21 -60 33 -92 93 -248 14 -36
54 -141 90 -235 35 -93 83 -220 107 -281 l42 -112 103 0 103 0 16 36 c8 21 22
55 30 77 20 57 69 188 201 535 64 168 117 311 117 318 1 6 4 12 8 12 4 0 7
-237 8 -527 0 -291 1 -539 1 -553 l1 -25 107 3 c59 1 109 5 112 7 2 3 4 346 4
762 l0 758 -49 2 c-27 0 -59 2 -71 2 -14 1 -23 8 -25 24 -3 22 -4 21 -10 -3z"/>
<path d="M759 5866 c-2 -2 -25 -6 -51 -9 -58 -7 -170 -51 -223 -87 -135 -93
-225 -248 -259 -445 -13 -82 -15 -419 -2 -500 22 -132 76 -250 166 -358 45
-55 195 -139 271 -152 19 -3 42 -8 53 -11 25 -8 151 -7 206 1 203 30 371 177
450 392 7 18 11 33 10 35 -1 2 3 15 9 30 6 15 13 48 17 73 l6 45 -110 -1 -110
-2 -26 -79 c-59 -180 -163 -266 -329 -274 -203 -10 -333 93 -383 303 -24 98
-24 391 -1 493 32 140 105 241 206 289 49 23 69 26 156 26 87 0 107 -3 155
-26 98 -46 163 -127 200 -249 l16 -55 112 0 c85 0 112 3 112 12 0 33 -44 173
-72 230 -76 152 -221 269 -376 304 -47 10 -196 21 -203 15z"/>
<path d="M2635 5858 c-79 -10 -168 -43 -230 -84 -66 -44 -83 -59 -134 -124
-70 -88 -110 -189 -136 -340 -7 -39 -7 -410 0 -455 3 -22 9 -53 12 -70 4 -16
7 -32 8 -35 6 -34 45 -126 71 -169 66 -112 153 -189 270 -239 131 -55 332 -53
462 5 20 9 40 17 44 17 4 1 34 21 67 45 134 97 223 264 247 466 11 89 7 370
-6 450 -58 362 -333 579 -675 533z m247 -251 c101 -50 173 -151 203 -289 20
-92 14 -432 -9 -513 -57 -203 -219 -304 -431 -271 -127 20 -230 118 -269 256
-25 89 -28 117 -28 286 0 178 5 219 32 307 36 115 109 195 216 237 76 29 212
23 286 -13z"/>
<path d="M8575 5862 c-193 -22 -353 -129 -440 -296 -73 -140 -93 -258 -89
-529 3 -284 54 -438 189 -572 121 -120 275 -175 454 -162 306 23 520 255 547
592 12 142 6 363 -11 460 -37 199 -172 385 -331 456 -86 39 -228 61 -319 51z
m229 -257 c91 -45 151 -125 191 -255 28 -89 29 -431 2 -535 -45 -171 -151
-266 -326 -289 -45 -6 -147 12 -197 36 -101 47 -177 164 -199 309 -13 78 -12
321 1 410 36 240 164 361 379 355 76 -2 99 -7 149 -31z"/>
<path d="M17520 5863 c-53 -5 -148 -32 -206 -60 -66 -31 -165 -120 -208 -187
-37 -58 -82 -165 -91 -216 -3 -18 -7 -36 -9 -39 -20 -33 -24 -430 -6 -532 45
-256 189 -435 407 -505 71 -23 234 -27 318 -8 61 14 165 59 203 89 134 103
223 265 248 450 9 66 10 353 1 434 -9 89 -50 216 -92 285 -19 32 -35 61 -35
64 0 3 -30 34 -66 69 -120 115 -288 171 -464 156z m227 -258 c94 -52 149 -123
185 -237 25 -82 29 -119 30 -273 1 -159 -8 -240 -33 -312 -43 -126 -114 -201
-222 -238 -65 -22 -139 -25 -212 -8 -158 36 -248 149 -280 348 -7 44 -8 358
-1 390 30 139 59 205 116 264 40 41 102 78 155 92 17 5 71 7 122 5 76 -4 99
-9 140 -31z"/>
<path d="M6309 5846 c-1 -1 -2 -344 -3 -763 l-1 -763 25 -1 c75 -3 192 0 197
5 3 3 5 152 5 331 l1 325 303 0 c167 0 304 3 305 8 0 4 1 54 1 112 l1 105
-305 3 -306 2 2 203 1 202 373 0 373 0 -3 115 -3 115 -482 1 c-266 1 -484 1
-484 0z"/>
<path d="M10000 5084 c0 -721 1 -764 18 -765 18 -1 180 0 197 1 7 0 10 98 10
283 l0 282 149 3 c167 3 153 9 201 -83 14 -27 36 -68 48 -90 13 -22 67 -120
121 -217 l98 -178 37 -1 c51 -1 215 2 218 4 1 1 -19 38 -44 82 -44 79 -68 121
-133 240 -18 33 -42 76 -53 95 -11 19 -33 60 -50 90 -17 30 -36 64 -43 74 -12
18 -9 22 37 44 161 80 263 256 255 440 -10 213 -143 377 -359 439 -41 12 -123
16 -379 18 l-328 3 0 -764z m684 511 c70 -28 105 -60 136 -122 49 -98 16 -234
-73 -300 -69 -51 -122 -61 -334 -63 l-188 -1 1 248 c1 136 2 252 3 256 0 4 90
7 199 7 184 -1 202 -3 256 -25z"/>
<path d="M11789 5846 c-1 -1 -2 -52 -3 -113 l-2 -113 212 0 212 0 1 -637 c0
-351 0 -645 0 -653 1 -12 19 -15 107 -13 59 1 109 4 111 7 3 3 5 295 5 650 l0
646 214 0 214 0 0 113 0 114 -535 0 c-294 0 -536 -1 -536 -1z"/>
<path d="M14622 5686 c27 -89 51 -168 53 -176 2 -8 39 -136 83 -285 45 -148
122 -409 172 -580 51 -170 96 -314 100 -319 11 -11 200 -11 209 0 6 7 103 329
116 384 2 8 29 98 60 200 31 102 58 193 60 204 7 29 12 29 19 -1 4 -15 56
-193 117 -395 60 -202 109 -374 109 -383 0 -16 18 -18 144 -16 79 2 82 3 89
33 11 45 26 98 122 418 96 319 177 591 197 660 5 19 30 103 55 185 65 218 64
215 59 224 -8 13 -214 11 -224 -3 -5 -6 -42 -121 -81 -256 -40 -135 -76 -256
-81 -270 -5 -14 -18 -59 -30 -100 -12 -41 -28 -94 -36 -117 -7 -23 -16 -52
-18 -65 -11 -52 -80 -271 -83 -262 -26 83 -243 805 -243 809 0 3 -47 5 -104 5
l-104 0 -11 -32 c-5 -18 -31 -103 -56 -188 -25 -85 -53 -177 -62 -205 -8 -27
-35 -117 -60 -200 -25 -82 -48 -161 -52 -175 -7 -23 -8 -23 -14 -5 -3 11 -62
209 -132 440 -69 231 -136 456 -150 500 -13 44 -27 92 -30 106 l-6 26 -118 0
-117 0 48 -161z"/>
<path d="M18949 5846 c-1 0 -2 -344 -3 -763 l-1 -763 25 -1 c30 -1 158 -1 183
0 16 1 17 22 17 286 l0 286 151 -3 150 -3 156 -280 c86 -154 157 -281 158
-283 3 -3 132 -5 218 -3 l38 1 -34 63 c-18 34 -93 169 -166 300 -73 131 -131
240 -129 241 1 2 28 17 58 34 308 173 322 612 26 804 -116 75 -158 81 -523 84
-178 1 -324 1 -324 0z m660 -243 c202 -65 240 -321 66 -440 -61 -42 -127 -53
-322 -53 l-183 0 0 255 0 255 194 0 c153 0 205 -3 245 -17z"/>
<path d="M20816 5841 c-2 -3 -4 -347 -4 -763 0 -699 1 -758 16 -758 129 -4
974 -1 978 3 5 5 8 111 5 194 l-1 22 -381 -1 c-209 0 -383 3 -386 6 -4 3 -6
298 -6 654 l0 649 -109 0 c-59 1 -110 -2 -112 -6z"/>
<path d="M22530 5084 l0 -764 33 -1 c142 -3 523 0 561 5 221 30 415 195 485
410 32 101 34 112 37 326 3 177 1 216 -16 288 -43 178 -133 313 -268 399 -135
86 -184 95 -539 99 l-293 2 0 -764z m555 541 c76 -10 166 -58 219 -116 92
-102 124 -215 123 -435 0 -220 -35 -332 -133 -430 -90 -91 -170 -114 -399
-111 l-140 2 -1 540 c0 297 3 545 7 550 8 11 241 11 324 0z"/>
</g>
</svg>
