<?xml version="1.0" standalone="no"?>
<!DOCTYPE svg PUBLIC "-//W3C//DTD SVG 20010904//EN"
 "http://www.w3.org/TR/2001/REC-SVG-20010904/DTD/svg10.dtd">
<svg version="1.0" xmlns="http://www.w3.org/2000/svg"
 width="100.000000pt" height="100.000000pt" viewBox="0 0 100.000000 100.000000"
 preserveAspectRatio="xMidYMid meet">
<metadata>
Created by potrace 1.11, written by Peter Selinger 2001-2013
</metadata>
<g transform="translate(0.000000,100.000000) scale(0.100000,-0.100000)"
fill="#000000" stroke="none">
<path d="M215 748 c-16 -6 -33 -16 -37 -22 -4 -6 -8 -7 -8 -2 0 21 -64 -52
-86 -99 -19 -40 -23 -62 -20 -120 4 -109 55 -183 145 -209 50 -14 142 -13 183
3 25 9 26 13 17 41 -11 29 -23 38 -33 22 -7 -12 -118 -8 -151 6 -98 41 -111
223 -22 292 50 39 140 36 169 -5 9 -13 27 4 32 31 3 10 7 27 11 36 5 13 -2 19
-32 27 -48 14 -129 13 -168 -1z"/>
<path d="M632 726 c-5 -6 -15 -38 -22 -71 -7 -33 -16 -64 -19 -70 -5 -10 -8
-21 -14 -60 -2 -11 -6 -25 -10 -31 -3 -6 -9 -30 -13 -52 -4 -23 -10 -42 -14
-42 -6 0 -59 182 -64 220 -1 9 -4 20 -8 25 -3 6 -9 24 -13 40 -7 30 -8 29 -26
-24 -10 -29 -16 -58 -13 -62 3 -5 8 -22 11 -37 7 -36 9 -44 16 -62 6 -14 35
-124 42 -160 2 -8 4 -16 5 -17 2 -2 3 -6 4 -10 4 -20 18 -30 45 -31 27 -1 31
4 46 49 10 28 14 53 11 56 -3 3 -2 11 3 17 5 6 17 38 26 71 23 85 23 88 24
113 1 23 17 32 18 10 1 -16 32 -137 40 -158 3 -8 5 -21 4 -27 -1 -7 3 -21 8
-32 6 -10 12 -33 13 -51 1 -19 10 -36 21 -41 22 -12 62 -8 63 6 0 6 3 17 7 25
6 15 56 191 62 220 2 8 15 53 29 99 14 47 23 88 20 92 -2 4 -17 6 -32 4 -15
-2 -29 -4 -32 -4 -3 -1 -15 -41 -25 -91 -10 -49 -23 -90 -28 -90 -5 0 -6 -7
-3 -16 4 -9 2 -22 -2 -28 -5 -6 -10 -18 -10 -26 -1 -22 -11 -62 -17 -68 -8 -9
-13 1 -19 43 -4 22 -13 65 -21 95 -8 31 -16 65 -18 76 -2 10 -7 26 -10 34 -4
8 -8 24 -10 35 -4 32 -15 43 -42 43 -13 0 -28 -6 -33 -12z"/>
</g>
</svg>
